<?xml version="1.0" standalone="no"?><!DOCTYPE svg PUBLIC "-//W3C//DTD SVG 1.1//EN" "http://www.w3.org/Graphics/SVG/1.1/DTD/svg11.dtd"><svg t="1650162298017" class="icon" viewBox="0 0 1239 1024" version="1.1" xmlns="http://www.w3.org/2000/svg" p-id="3398" xmlns:xlink="http://www.w3.org/1999/xlink" width="241.9921875" height="200"><defs><style type="text/css">@font-face { font-family: feedback-iconfont; src: url("//at.alicdn.com/t/font_1031158_u69w8yhxdu.woff2?t=1630033759944") format("woff2"), url("//at.alicdn.com/t/font_1031158_u69w8yhxdu.woff?t=1630033759944") format("woff"), url("//at.alicdn.com/t/font_1031158_u69w8yhxdu.ttf?t=1630033759944") format("truetype"); }
</style></defs><path d="M1168.961931 286.525821c-44.00404-42.978812-100.288195-67.53822-160.665789-71.631455-19.443608-3.069952-39.910601-1.023283-59.354208 2.046566-36.840547-121.773453-168.852566-216.940932-313.144801-216.940932l-1.023349 0c-220.019997 1.023283-320.308294 144.286194-352.032118 257.873177-12.280216-2.046566-25.583716-3.069952-37.863932-3.069952-85.96131 0-165.782511 44.002197-212.856606 115.63355 0 1.023283 0 1.023283-1.023385 3.069952-32.74721 60.375034-66.517702 202.614559 55.260871 293.688803 35.817264 29.675927 92.101418 32.745776 113.591694 32.745776l1.023349 0 2.046698 0c0 0 0 0 202.623161 0 29.677155 0 53.2141-23.536023 53.2141-52.188564 0-31.722493-23.537047-54.235233-53.2141-54.235233l-202.623111 0-4.093396 0c-22.513662 0-42.980655-5.116518-48.097378-9.209753-74.704479-57.305185-32.74721-145.309477-24.56033-158.612464 35.817264-59.351751 95.171472-65.491552 118.708519-65.491552 22.513662 0 37.863932 6.139801 42.980655 9.209753 15.35027 11.256319 35.817264 16.372939 54.237486 7.163186 17.396939-7.163186 30.700439-23.536023 31.723824-44.002197 0-9.209753 23.537047-225.127299 260.953984-226.150685l1.023349 0c120.755188 0 215.92666 95.167478 218.996714 177.031969 1.023385 15.349554 9.210162 31.722493 22.513662 39.908962 13.303499 9.209753 31.723824 12.279704 47.074094 6.139801 22.513662-7.163186 42.980655-10.233036 64.471034-10.233036 5.116723 0 12.280216 1.023283 19.443608 1.023283 31.723824 3.069952 62.424263 17.396222 83.914641 40.932246 25.583716 24.559306 39.910601 57.305185 39.910601 91.074244 0 105.400514-94.148087 136.099724-118.708519 141.216242l-5.116745 0 0 1.023306c-2.046669 0-2.046669 0-2.046669 0l0-1.023306-6.140094 0-201.599762 0-6.140094 0 0 1.023306c-26.607101 3.069952-46.050709 24.559306-46.050709 53.21195 0 25.582692 19.443608 48.095432 46.050709 51.165281l0 1.023306 6.140094 0 201.599762 0 6.140094 0 0-1.023306c0 0 0 0 2.046669 0l0 1.023306 12.280189 0c3.070054 0 6.140108-1.023283 10.233445-1.023283 72.65781-13.302987 207.739883-83.911057 207.739883-246.616756C1238.549687 391.926335 1211.942586 329.504633 1168.961931 286.525821L1168.961931 286.525821zM512.995174 675.382102c6.140108 9.209753 15.35027 13.302987 26.607101 13.302987 6.140108 0 11.256831-1.023283 17.396939-6.139801l19.443608-11.256319 0 18.41951c0 17.396222 12.280216 30.69921 29.677155 30.69921s30.700439-13.302987 30.700439-30.69921l0-17.396204 16.373554 9.209753c6.140108 4.093235 10.233445 5.116518 16.373554 5.116518 10.233445 0 19.443608-6.139801 26.607101-14.326271 8.186777-15.349554 4.09344-32.745776-11.256831-41.955529l-24.56033-17.396222 23.537047-15.349554c15.35027-9.209753 17.396939-28.652541 8.186777-41.955529-9.210162-15.349554-28.65377-18.419505-41.957269-9.209753l-13.303499 8.18647 0-15.349591c0-17.396222-13.303499-29.675927-30.700439-29.675927s-29.677155 12.279704-29.677155 29.675927l0 20.466122-16.373554-10.233036c-13.303499-10.233036-34.793878-4.093235-44.00404 9.209753-6.140108 14.326271-3.070054 34.792445 11.256831 42.978812l21.490379 13.302987-27.630384 18.419505C508.901837 641.613043 503.785114 660.032548 512.995174 675.382102L512.995174 675.382102zM701.29145 914.835774l-38.887215-26.605975 37.863932-23.536023c13.303499-9.209753 16.373554-30.69921 8.186777-44.002197-9.210162-13.302987-29.677155-18.419505-44.00404-8.18647l-24.56033 16.372939 0-29.675877c0-17.396222-13.303499-31.722493-31.723824-31.722493-15.35027 0-29.677155 14.326271-29.677155 31.722493l0 34.792407-29.677155-19.442788c-14.326885-7.163186-33.770493-4.093235-41.957269 9.209753-8.186777 15.349554-5.116723 35.815728 9.210162 44.002197l33.770493 21.489457-39.910601 28.652541c-14.326885 9.209753-17.396939 26.605975-8.186777 40.932246 5.116723 9.209753 14.326885 13.302987 23.537047 13.302987 8.186777 0 14.326885-1.023283 18.420325-6.139801l34.793878-21.489457 0 36.839019c0 17.396222 14.326885 30.69921 29.677155 30.69921 18.420325 0 31.723824-13.302987 31.723824-30.69921l0-34.792407 28.65377 18.419505c5.116723 3.069952 11.256831 5.116518 15.35027 5.116518 12.280216 0 22.513662-5.116518 27.630384-14.326271C720.735058 942.465032 716.641618 923.022244 701.29145 914.835774L701.29145 914.835774zM946.895163 880.04333l-25.583716-15.349554 23.537047-15.349554c10.233445-8.18647 13.303499-25.582692 7.163494-35.815728-8.186777-12.279704-24.56033-14.326271-35.817264-6.139801l-13.303499 7.163186 0-14.326285c0-16.372939-12.280216-26.605975-25.583716-26.605975-14.326885 0-25.583716 10.233036-25.583716 26.605975l0 18.41951-16.373554-10.233036c-11.256831-7.163186-28.65377-4.093235-35.817264 8.18647-6.140108 12.279704-3.070054 29.675927 8.186777 35.815728l21.490379 13.302987-25.583716 18.419505c-11.256831 6.139801-15.35027 22.51274-7.163494 34.792445 5.116723 7.163186 12.280216 11.256319 21.490379 11.256319 5.116723 0 11.256831-2.046566 14.326885-4.093235l19.443608-14.326271 0 21.489428c0 13.302987 11.256831 25.582692 25.583716 25.582692 13.303499 0 25.583716-12.279704 25.583716-25.582692l0-19.442816 16.373554 10.233036c2.046669 3.069952 8.186777 3.069952 11.256831 3.069952 11.256831 0 18.420325-3.069952 23.537047-10.233036C962.245433 903.579353 957.128711 888.229799 946.895163 880.04333L946.895163 880.04333zM399.40348 880.04333l-25.583716-15.349554 24.56033-15.349554c11.256831-8.18647 16.373554-25.582692 7.163494-35.815728-8.186777-12.279704-24.56033-14.326271-36.840547-6.139801l-14.326885 7.163186 0-14.326285c0-16.372939-11.256831-26.605975-24.56033-26.605975-14.326885 0-26.607101 10.233036-26.607101 26.605975l0 18.41951-15.35027-10.233036c-11.256831-7.163186-26.607101-4.093235-33.770493 8.18647-8.186777 12.279704-5.116723 29.675927 7.163494 35.815728l20.466993 13.302987-25.583716 18.419505c-11.256831 6.139801-15.35027 22.51274-6.140108 34.792445 5.116723 7.163186 13.303499 11.256319 20.466993 11.256319 5.116723 0 9.210162-2.046566 13.303499-4.093235l19.443608-14.326271 0 21.489428c0 13.302987 12.280216 25.582692 26.607101 25.582692 13.303499 0 24.56033-12.279704 24.56033-25.582692l0-19.442816 17.396939 10.233036c4.09344 3.069952 9.210162 3.069952 13.303499 3.069952 9.210162 0 17.396939-3.069952 22.513662-10.233036C415.777034 903.579353 412.70698 888.229799 399.40348 880.04333z" p-id="3399"></path></svg>